<svg width="375" height="264" viewBox="0 0 375 264" fill="none" xmlns="http://www.w3.org/2000/svg">
<g filter="url(#filter0_d_1308_13543)">
<path d="M336.783 26H38.2174C30.3653 26 24 32.2557 24 39.9726V216.027C24 223.744 30.3653 230 38.2174 230H336.783C344.635 230 351 223.744 351 216.027V39.9726C351 32.2557 344.635 26 336.783 26Z" fill="#1573FF"/>
<mask id="mask0_1308_13543" style="mask-type:alpha" maskUnits="userSpaceOnUse" x="24" y="26" width="327" height="204">
<path d="M336.783 26H38.2174C30.3653 26 24 32.2557 24 39.9726V216.027C24 223.744 30.3653 230 38.2174 230H336.783C344.635 230 351 223.744 351 216.027V39.9726C351 32.2557 344.635 26 336.783 26Z" fill="#DAEBFF"/>
</mask>
<g mask="url(#mask0_1308_13543)">
<path d="M69.8991 348.173C167.489 348.173 246.601 270.423 246.601 174.513C246.601 78.6036 167.489 0.853516 69.8991 0.853516C-27.6906 0.853516 -106.803 78.6036 -106.803 174.513C-106.803 270.423 -27.6906 348.173 69.8991 348.173Z" fill="#1E1671"/>
<path d="M342.878 153.749C395.599 153.749 438.338 111.746 438.338 59.9324C438.338 8.11916 395.599 -33.8838 342.878 -33.8838C290.157 -33.8838 247.418 8.11916 247.418 59.9324C247.418 111.746 290.157 153.749 342.878 153.749Z" fill="#4EB4FF"/>
<path fill-rule="evenodd" clip-rule="evenodd" d="M287.346 198.394L291.046 187.869V187.871H295.042L289.104 203.344H285.109L281.721 190.028C284.114 191.321 286.259 193.923 286.943 196.318L287.346 198.394ZM296.564 187.869L294.202 203.36H297.978L300.339 187.869H296.564ZM307.955 194.179C306.635 193.493 305.826 193.029 305.826 192.327C305.842 191.688 306.51 191.034 308.002 191.034C309.229 191.002 310.131 191.305 310.815 191.608L311.157 191.769L311.671 188.528C310.925 188.224 309.742 187.889 308.281 187.889C304.552 187.889 301.926 189.932 301.91 192.854C301.879 195.01 303.79 196.207 305.22 196.924C306.681 197.661 307.178 198.138 307.178 198.792C307.162 199.796 305.997 200.26 304.91 200.26C303.403 200.26 302.594 200.021 301.366 199.462L300.869 199.223L300.341 202.591C301.228 203.007 302.859 203.372 304.552 203.391C308.516 203.391 311.094 201.379 311.127 198.265C311.14 196.557 310.132 195.249 307.955 194.179ZM318.43 187.917H321.352L324.397 203.372H320.902L320.335 200.286H315.902L314.81 203.36H310.847L316.456 189.163C316.846 188.19 317.53 187.917 318.43 187.917ZM317.001 197.183C317.082 197.175 318.522 192.166 318.522 192.166L319.672 197.183H317.001Z" fill="white"/>
<path d="M285.697 189.978C285.427 188.729 284.564 187.887 283.393 187.869H277.897L277.841 188.172C282.128 189.428 285.726 193.29 286.893 196.923L285.697 189.978Z" fill="white"/>
</g>
</g>
<defs>
<filter id="filter0_d_1308_13543" x="-6" y="0" width="387" height="264" filterUnits="userSpaceOnUse" color-interpolation-filters="sRGB">
<feFlood flood-opacity="0" result="BackgroundImageFix"/>
<feColorMatrix in="SourceAlpha" type="matrix" values="0 0 0 0 0 0 0 0 0 0 0 0 0 0 0 0 0 0 127 0" result="hardAlpha"/>
<feOffset dy="4"/>
<feGaussianBlur stdDeviation="15"/>
<feColorMatrix type="matrix" values="0 0 0 0 0.211765 0 0 0 0 0.160784 0 0 0 0 0.717647 0 0 0 0.07 0"/>
<feBlend mode="normal" in2="BackgroundImageFix" result="effect1_dropShadow_1308_13543"/>
<feBlend mode="normal" in="SourceGraphic" in2="effect1_dropShadow_1308_13543" result="shape"/>
</filter>
</defs>
</svg>
