<svg width="16" height="17" viewBox="0 0 16 17" fill="none" xmlns="http://www.w3.org/2000/svg">
<path d="M15.3333 1.16699H0.666667C0.489856 1.16699 0.320286 1.23723 0.195262 1.36225C0.0702379 1.48728 0 1.65685 0 1.83366L0 12.5003C0 12.6771 0.0702379 12.8467 0.195262 12.9717C0.320286 13.0968 0.489856 13.167 0.666667 13.167H6.66667V14.5003H3.33333V15.8337H12.6667V14.5003H9.33333V13.167H15.3333C15.5101 13.167 15.6797 13.0968 15.8047 12.9717C15.9298 12.8467 16 12.6771 16 12.5003V1.83366C16 1.65685 15.9298 1.48728 15.8047 1.36225C15.6797 1.23723 15.5101 1.16699 15.3333 1.16699ZM14.6667 11.8337H1.33333V2.50033H14.6667V11.8337Z" fill="white"/>
</svg>
