<svg width="16" height="17" viewBox="0 0 16 17" fill="none" xmlns="http://www.w3.org/2000/svg">
<path d="M4.00016 1.16699H1.3335V2.50033H4.00016V1.16699Z" fill="white"/>
<path d="M14.6667 3.16699H11.3333L10 1.16699H6L4.66667 3.16699H1.33333C0.979711 3.16699 0.640573 3.30747 0.390524 3.55752C0.140476 3.80756 0 4.1467 0 4.50033L0 13.8337C0 14.1873 0.140476 14.5264 0.390524 14.7765C0.640573 15.0265 0.979711 15.167 1.33333 15.167H14.6667C15.0203 15.167 15.3594 15.0265 15.6095 14.7765C15.8595 14.5264 16 14.1873 16 13.8337V4.50033C16 4.1467 15.8595 3.80756 15.6095 3.55752C15.3594 3.30747 15.0203 3.16699 14.6667 3.16699ZM2.66667 6.50033C2.53481 6.50033 2.40592 6.46123 2.29629 6.38797C2.18665 6.31472 2.10121 6.2106 2.05075 6.08878C2.00029 5.96696 1.98709 5.83292 2.01281 5.7036C2.03853 5.57428 2.10203 5.45549 2.19526 5.36225C2.2885 5.26902 2.40729 5.20553 2.53661 5.1798C2.66593 5.15408 2.79997 5.16728 2.92179 5.21774C3.04361 5.2682 3.14773 5.35365 3.22098 5.46328C3.29423 5.57291 3.33333 5.7018 3.33333 5.83366C3.33333 6.01047 3.2631 6.18004 3.13807 6.30506C3.01305 6.43009 2.84348 6.50033 2.66667 6.50033ZM8 12.5003C7.34073 12.5003 6.69626 12.3048 6.1481 11.9386C5.59994 11.5723 5.17269 11.0517 4.9204 10.4426C4.66811 9.83352 4.6021 9.16329 4.73072 8.51669C4.85933 7.87009 5.1768 7.27614 5.64298 6.80997C6.10915 6.34379 6.7031 6.02633 7.3497 5.89771C7.9963 5.76909 8.66652 5.8351 9.27561 6.08739C9.8847 6.33969 10.4053 6.76693 10.7716 7.31509C11.1378 7.86326 11.3333 8.50772 11.3333 9.16699C11.3333 10.051 10.9821 10.8989 10.357 11.524C9.7319 12.1491 8.88406 12.5003 8 12.5003Z" fill="white"/>
</svg>
