<svg width="14" height="16" viewBox="0 0 14 16" fill="none" xmlns="http://www.w3.org/2000/svg">
<path d="M11.0002 2L9.00016 0L7.00016 2L5.00016 0L3.00016 2L0.333496 0V15.3333C0.333496 15.702 0.632163 16 1.00016 16H13.0002C13.3682 16 13.6668 15.702 13.6668 15.3333V0L11.0002 2ZM7.66683 12.6667H3.00016V11.3333H7.66683V12.6667ZM7.66683 10H3.00016V8.66667H7.66683V10ZM7.66683 7.33333H3.00016V6H7.66683V7.33333ZM11.0002 12.6667H9.00016V11.3333H11.0002V12.6667ZM11.0002 10H9.00016V8.66667H11.0002V10ZM11.0002 7.33333H9.00016V6H11.0002V7.33333Z" fill="white"/>
</svg>
