<svg width="19" height="20" viewBox="0 0 19 20" fill="none" xmlns="http://www.w3.org/2000/svg">
<path d="M8.16683 11.6667C7.94582 11.6667 7.73385 11.5789 7.57757 11.4226C7.42129 11.2663 7.3335 11.0543 7.3335 10.8333V1.66667C7.3335 1.22464 7.50909 0.800716 7.82165 0.488155C8.13421 0.175595 8.55814 0 9.00016 0L17.3335 0C17.7755 0 18.1994 0.175595 18.512 0.488155C18.8246 0.800716 19.0002 1.22464 19.0002 1.66667V7.5C19.0002 7.94203 18.8246 8.36595 18.512 8.67851C18.1994 8.99107 17.7755 9.16667 17.3335 9.16667H11.7777L8.66683 11.5C8.52258 11.6082 8.34714 11.6667 8.16683 11.6667Z" fill="white"/>
<path d="M12.3334 10.8332V16.6665C12.3334 16.8875 12.2456 17.0995 12.0893 17.2558C11.9331 17.412 11.7211 17.4998 11.5001 17.4998H3.16675C2.94573 17.4998 2.73377 17.412 2.57749 17.2558C2.42121 17.0995 2.33341 16.8875 2.33341 16.6665V4.99984C2.33341 4.77882 2.42121 4.56686 2.57749 4.41058C2.73377 4.2543 2.94573 4.1665 3.16675 4.1665H5.66675V1.6665H3.16675C2.50371 1.6665 1.86782 1.9299 1.39898 2.39874C0.93014 2.86758 0.666748 3.50346 0.666748 4.1665V17.4998C0.666748 18.1629 0.93014 18.7988 1.39898 19.2676C1.86782 19.7364 2.50371 19.9998 3.16675 19.9998H11.5001C12.1631 19.9998 12.799 19.7364 13.2678 19.2676C13.7367 18.7988 14.0001 18.1629 14.0001 17.4998V10.8332H12.3334Z" fill="white"/>
</svg>
