<svg width="32" height="32" viewBox="0 0 32 32" fill="none" xmlns="http://www.w3.org/2000/svg">
<circle cx="16" cy="16" r="16" fill="#3629B7"/>
<path d="M22.0605 15.3946H16.606V9.94004C16.606 9.57641 16.3636 9.33398 15.9999 9.33398C15.6363 9.33398 15.3939 9.57641 15.3939 9.94004V15.3946H9.93931C9.57568 15.3946 9.33325 15.637 9.33325 16.0007C9.33325 16.3643 9.57568 16.6067 9.93931 16.6067H15.3939V22.0613C15.3939 22.4249 15.6363 22.6673 15.9999 22.6673C16.3636 22.6673 16.606 22.4249 16.606 22.0613V16.6067H22.0605C22.4242 16.6067 22.6666 16.3643 22.6666 16.0007C22.6666 15.637 22.4242 15.3946 22.0605 15.3946Z" fill="white"/>
</svg>
