<svg width="12" height="16" viewBox="0 0 12 16" fill="none" xmlns="http://www.w3.org/2000/svg">
<path d="M6.47313 0.200184C6.3454 0.0788694 6.17596 0.0112305 5.9998 0.0112305C5.82364 0.0112305 5.6542 0.0788694 5.52646 0.200184C5.30113 0.42485 -0.000202383 5.80752 -0.000202383 9.33352C-0.00795282 10.1236 0.141949 10.9073 0.440733 11.6388C0.739517 12.3702 1.18118 13.0347 1.73988 13.5934C2.29859 14.1521 2.9631 14.5938 3.69456 14.8926C4.42601 15.1914 5.20971 15.3413 5.9998 15.3335C6.78988 15.3413 7.57358 15.1914 8.30504 14.8926C9.03649 14.5938 9.70101 14.1521 10.2597 13.5934C10.8184 13.0347 11.2601 12.3702 11.5589 11.6388C11.8576 10.9073 12.0075 10.1236 11.9998 9.33352C11.9998 5.80752 6.69846 0.42485 6.47313 0.200184ZM6.66646 12.0002H5.9998C5.64799 12.006 5.2986 11.9411 4.97241 11.8091C4.64623 11.6772 4.34992 11.481 4.10112 11.2322C3.85232 10.9834 3.65612 10.6871 3.52418 10.3609C3.39224 10.0347 3.32727 9.68532 3.33313 9.33352V8.66685H4.66646V9.33352C4.66646 9.68714 4.80694 10.0263 5.05699 10.2763C5.30704 10.5264 5.64618 10.6669 5.9998 10.6669H6.66646V12.0002Z" fill="white"/>
</svg>
